REM DIRINDEX 1\6,1\2\7,1\2\8,1\2\9,1\3\10,1\3\11,1\4\12,1\4\13,1\4\14,1\5\15,1\5\16,1\5\17
REM DIRNAME cjc041,folder01,folder02,folder03,folder04,folder05,folder06,folder07,folder08,folder09,folder10,folder11,folder12,folder13,folder14,folder15,folder16
TITLE ""
FILE "3Q_t_0803-0818.mp3" MP3
  TRACK 01 AUDIO
    TITLE "10:cjc041_3216"
    INDEX 01 00:00:00
  TRACK 02 AUDIO
    TITLE "0:"
    INDEX 01 00:01:03
  TRACK 03 AUDIO
    TITLE "11:cjc041_3217"
    INDEX 01 00:01:60
  TRACK 04 AUDIO
    TITLE "0:"
    INDEX 01 00:04:29
  TRACK 05 AUDIO
    TITLE "10:cjc041_3218"
    INDEX 01 00:05:10
  TRACK 06 AUDIO
    TITLE "0:"
    INDEX 01 00:06:31
  TRACK 07 AUDIO
    TITLE "11:cjc041_3219"
    INDEX 01 00:07:05
  TRACK 08 AUDIO
    TITLE "0:"
    INDEX 01 00:08:17
  TRACK 09 AUDIO
    TITLE "10:cjc041_3220"
    INDEX 01 00:08:68
  TRACK 10 AUDIO
    TITLE "0:"
    INDEX 01 00:10:31
  TRACK 11 AUDIO
    TITLE "11:cjc041_3221"
    INDEX 01 00:11:13
  TRACK 12 AUDIO
    TITLE "0:"
    INDEX 01 00:12:34
  TRACK 13 AUDIO
    TITLE "10:cjc041_3222"
    INDEX 01 00:13:08
  TRACK 14 AUDIO
    TITLE "0:"
    INDEX 01 00:14:29
  TRACK 15 AUDIO
    TITLE "11:cjc041_3223"
    INDEX 01 00:15:13
  TRACK 16 AUDIO
    TITLE "0:"
    INDEX 01 00:16:20
  TRACK 17 AUDIO
    TITLE "10:cjc041_3224"
    INDEX 01 00:16:71
  TRACK 18 AUDIO
    TITLE "0:"
    INDEX 01 00:18:19
  TRACK 19 AUDIO
    TITLE "11:cjc041_3225"
    INDEX 01 00:18:74
  TRACK 20 AUDIO
    TITLE "0:"
    INDEX 01 00:20:36
  TRACK 21 AUDIO
    TITLE "10:cjc041_3226"
    INDEX 01 00:21:15
  TRACK 22 AUDIO
    TITLE "0:"
    INDEX 01 00:22:38
  TRACK 23 AUDIO
    TITLE "11:cjc041_3227"
    INDEX 01 00:23:20
  TRACK 24 AUDIO
    TITLE "0:"
    INDEX 01 00:25:39
  TRACK 25 AUDIO
    TITLE "10:cjc041_3228"
    INDEX 01 00:26:20
  TRACK 26 AUDIO
    TITLE "0:"
    INDEX 01 00:27:45
  TRACK 27 AUDIO
    TITLE "11:cjc041_3229"
    INDEX 01 00:28:27
  TRACK 28 AUDIO
    TITLE "0:"
    INDEX 01 00:29:36
  TRACK 29 AUDIO
    TITLE "10:cjc041_3230"
    INDEX 01 00:30:16
  TRACK 30 AUDIO
    TITLE "0:"
    INDEX 01 00:31:47
  TRACK 31 AUDIO
    TITLE "11:cjc041_3231"
    INDEX 01 00:32:25
  TRACK 32 AUDIO
    TITLE "0:"
    INDEX 01 00:35:00
  TRACK 33 AUDIO
    TITLE "10:cjc041_3232"
    INDEX 01 00:35:55
  TRACK 34 AUDIO
    TITLE "0:"
    INDEX 01 00:36:74
  TRACK 35 AUDIO
    TITLE "11:cjc041_3233"
    INDEX 01 00:37:52
  TRACK 36 AUDIO
    TITLE "0:"
    INDEX 01 00:38:61
  TRACK 37 AUDIO
    TITLE "10:cjc041_3234"
    INDEX 01 00:39:41
  TRACK 38 AUDIO
    TITLE "0:"
    INDEX 01 00:40:58
  TRACK 39 AUDIO
    TITLE "11:cjc041_3235"
    INDEX 01 00:41:32
  TRACK 40 AUDIO
    TITLE "0:"
    INDEX 01 00:43:58
  TRACK 41 AUDIO
    TITLE "10:cjc041_3236"
    INDEX 01 00:44:34
  TRACK 42 AUDIO
    TITLE "0:"
    INDEX 01 00:45:69
  TRACK 43 AUDIO
    TITLE "11:cjc041_3237"
    INDEX 01 00:46:45
  TRACK 44 AUDIO
    TITLE "0:"
    INDEX 01 00:48:55
  TRACK 45 AUDIO
    TITLE "10:cjc041_3238"
    INDEX 01 00:49:31
  TRACK 46 AUDIO
    TITLE "0:"
    INDEX 01 00:50:46
  TRACK 47 AUDIO
    TITLE "11:cjc041_3239"
    INDEX 01 00:51:26
  TRACK 48 AUDIO
    TITLE "0:"
    INDEX 01 00:52:47
  TRACK 49 AUDIO
    TITLE "10:cjc041_3240"
    INDEX 01 00:53:29
  TRACK 50 AUDIO
    TITLE "0:"
    INDEX 01 00:54:50
  TRACK 51 AUDIO
    TITLE "11:cjc041_3241"
    INDEX 01 00:55:28
  TRACK 52 AUDIO
    TITLE "0:"
    INDEX 01 00:57:01
  TRACK 53 AUDIO
    TITLE "10:cjc041_3242"
    INDEX 01 00:57:58
  TRACK 54 AUDIO
    TITLE "0:"
    INDEX 01 00:59:14
  TRACK 55 AUDIO
    TITLE "11:cjc041_3243"
    INDEX 01 00:59:69
  TRACK 56 AUDIO
    TITLE "0:"
    INDEX 01 01:04:27
  TRACK 57 AUDIO
    TITLE "10:cjc041_3244"
    INDEX 01 01:05:07
  TRACK 58 AUDIO
    TITLE "0:"
    INDEX 01 01:06:20
  TRACK 59 AUDIO
    TITLE "11:cjc041_3245"
    INDEX 01 01:07:02
  TRACK 60 AUDIO
    TITLE "0:"
    INDEX 01 01:08:11
  TRACK 61 AUDIO
    TITLE "10:cjc041_3246"
    INDEX 01 01:08:70
  TRACK 62 AUDIO
    TITLE "0:"
    INDEX 01 01:10:06
  TRACK 63 AUDIO
    TITLE "11:cjc041_3247"
    INDEX 01 01:10:55
  TRACK 64 AUDIO
    TITLE "0:"
    INDEX 01 01:11:72
